<mxfile host="app.diagrams.net" agent="Mozilla/5.0 (Windows NT 10.0; Win64; x64) AppleWebKit/537.36 (KHTML, like Gecko) Chrome/130.0.0.0 Safari/537.36" version="24.8.0">
  <diagram name="Página-1" id="oFq5PPR85VRdoofsXlYv">
    <mxGraphModel dx="1500" dy="807" grid="1" gridSize="10" guides="1" tooltips="1" connect="1" arrows="1" fold="1" page="1" pageScale="1" pageWidth="827" pageHeight="1169" math="0" shadow="0">
      <root>
        <mxCell id="0" />
        <mxCell id="1" parent="0" />
        <mxCell id="GKZXtmYRhP6YwUxVynPK-1" value="start" style="shape=mxgraph.flowchart.terminator;strokeWidth=2;gradientColor=none;gradientDirection=north;fontStyle=0;html=1;" parent="1" vertex="1">
          <mxGeometry x="260" y="60" width="120" height="30" as="geometry" />
        </mxCell>
        <mxCell id="GKZXtmYRhP6YwUxVynPK-2" style="fontStyle=1;strokeColor=#003366;strokeWidth=1;html=1;entryX=0.5;entryY=0;entryDx=0;entryDy=0;" parent="1" source="GKZXtmYRhP6YwUxVynPK-1" target="GKZXtmYRhP6YwUxVynPK-7" edge="1">
          <mxGeometry relative="1" as="geometry">
            <mxPoint x="320" y="130" as="targetPoint" />
          </mxGeometry>
        </mxCell>
        <mxCell id="GKZXtmYRhP6YwUxVynPK-3" style="fontStyle=1;strokeColor=#003366;strokeWidth=1;html=1;exitX=0.5;exitY=1;exitDx=0;exitDy=0;entryX=0.5;entryY=0;entryDx=0;entryDy=0;entryPerimeter=0;" parent="1" source="GKZXtmYRhP6YwUxVynPK-7" target="GKZXtmYRhP6YwUxVynPK-8" edge="1">
          <mxGeometry relative="1" as="geometry">
            <mxPoint x="320" y="210" as="sourcePoint" />
            <mxPoint x="320" y="250" as="targetPoint" />
          </mxGeometry>
        </mxCell>
        <mxCell id="GKZXtmYRhP6YwUxVynPK-4" style="entryX=0.5;entryY=0;fontStyle=1;strokeColor=#003366;strokeWidth=1;html=1;exitX=0.5;exitY=1;exitDx=0;exitDy=0;exitPerimeter=0;entryDx=0;entryDy=0;entryPerimeter=0;" parent="1" source="GKZXtmYRhP6YwUxVynPK-8" target="GKZXtmYRhP6YwUxVynPK-36" edge="1">
          <mxGeometry relative="1" as="geometry">
            <mxPoint x="320" y="360" as="sourcePoint" />
            <mxPoint x="319.5" y="384" as="targetPoint" />
          </mxGeometry>
        </mxCell>
        <mxCell id="GKZXtmYRhP6YwUxVynPK-5" value="Não" style="text;fontStyle=0;html=1;strokeColor=none;gradientColor=none;fillColor=none;strokeWidth=2;" parent="1" vertex="1">
          <mxGeometry x="394" y="270" width="40" height="26" as="geometry" />
        </mxCell>
        <mxCell id="GKZXtmYRhP6YwUxVynPK-6" value="end" style="shape=mxgraph.flowchart.terminator;strokeWidth=2;gradientColor=none;gradientDirection=north;fontStyle=0;html=1;" parent="1" vertex="1">
          <mxGeometry x="450.5" y="670" width="120" height="30" as="geometry" />
        </mxCell>
        <mxCell id="GKZXtmYRhP6YwUxVynPK-7" value="Visualizar AMAPs" style="rounded=1;whiteSpace=wrap;html=1;" parent="1" vertex="1">
          <mxGeometry x="260" y="140" width="120" height="60" as="geometry" />
        </mxCell>
        <mxCell id="GKZXtmYRhP6YwUxVynPK-8" value="Inscrito na AMAP&lt;div&gt;selecionada ?&lt;/div&gt;" style="shape=mxgraph.flowchart.decision;strokeWidth=2;gradientColor=none;gradientDirection=north;fontStyle=0;html=1;" parent="1" vertex="1">
          <mxGeometry x="255" y="250" width="129" height="87" as="geometry" />
        </mxCell>
        <mxCell id="GKZXtmYRhP6YwUxVynPK-9" style="edgeStyle=orthogonalEdgeStyle;rounded=0;orthogonalLoop=1;jettySize=auto;html=1;exitX=0.5;exitY=0;exitDx=0;exitDy=0;exitPerimeter=0;entryX=1;entryY=0.5;entryDx=0;entryDy=0;" parent="1" source="GKZXtmYRhP6YwUxVynPK-11" target="GKZXtmYRhP6YwUxVynPK-7" edge="1">
          <mxGeometry relative="1" as="geometry" />
        </mxCell>
        <mxCell id="GKZXtmYRhP6YwUxVynPK-10" style="edgeStyle=orthogonalEdgeStyle;rounded=0;orthogonalLoop=1;jettySize=auto;html=1;entryX=0.5;entryY=0;entryDx=0;entryDy=0;" parent="1" source="GKZXtmYRhP6YwUxVynPK-11" target="GKZXtmYRhP6YwUxVynPK-40" edge="1">
          <mxGeometry relative="1" as="geometry">
            <mxPoint x="510.5" y="384" as="targetPoint" />
          </mxGeometry>
        </mxCell>
        <mxCell id="GKZXtmYRhP6YwUxVynPK-11" value="AMAP disponível ?" style="shape=mxgraph.flowchart.decision;strokeWidth=2;gradientColor=none;gradientDirection=north;fontStyle=0;html=1;" parent="1" vertex="1">
          <mxGeometry x="446" y="250" width="129" height="87" as="geometry" />
        </mxCell>
        <mxCell id="GKZXtmYRhP6YwUxVynPK-12" style="edgeStyle=orthogonalEdgeStyle;rounded=0;orthogonalLoop=1;jettySize=auto;html=1;exitX=1;exitY=0.5;exitDx=0;exitDy=0;exitPerimeter=0;entryX=0;entryY=0.5;entryDx=0;entryDy=0;entryPerimeter=0;" parent="1" source="GKZXtmYRhP6YwUxVynPK-8" target="GKZXtmYRhP6YwUxVynPK-11" edge="1">
          <mxGeometry relative="1" as="geometry" />
        </mxCell>
        <mxCell id="GKZXtmYRhP6YwUxVynPK-13" value="Sim" style="text;fontStyle=0;html=1;strokeColor=none;gradientColor=none;fillColor=none;strokeWidth=2;" parent="1" vertex="1">
          <mxGeometry x="323" y="342" width="40" height="26" as="geometry" />
        </mxCell>
        <mxCell id="GKZXtmYRhP6YwUxVynPK-14" value="Não" style="text;fontStyle=0;html=1;strokeColor=none;gradientColor=none;fillColor=none;strokeWidth=2;" parent="1" vertex="1">
          <mxGeometry x="480" y="190" width="40" height="26" as="geometry" />
        </mxCell>
        <mxCell id="GKZXtmYRhP6YwUxVynPK-15" value="Sim" style="text;fontStyle=0;html=1;strokeColor=none;gradientColor=none;fillColor=none;strokeWidth=2;" parent="1" vertex="1">
          <mxGeometry x="512" y="341" width="40" height="26" as="geometry" />
        </mxCell>
        <mxCell id="GKZXtmYRhP6YwUxVynPK-38" style="edgeStyle=orthogonalEdgeStyle;rounded=0;orthogonalLoop=1;jettySize=auto;html=1;entryX=0;entryY=0.5;entryDx=0;entryDy=0;" parent="1" source="GKZXtmYRhP6YwUxVynPK-36" target="GKZXtmYRhP6YwUxVynPK-7" edge="1">
          <mxGeometry relative="1" as="geometry">
            <Array as="points">
              <mxPoint x="240" y="428" />
              <mxPoint x="240" y="170" />
            </Array>
          </mxGeometry>
        </mxCell>
        <mxCell id="GKZXtmYRhP6YwUxVynPK-42" style="edgeStyle=orthogonalEdgeStyle;rounded=0;orthogonalLoop=1;jettySize=auto;html=1;entryX=0.5;entryY=0;entryDx=0;entryDy=0;" parent="1" source="GKZXtmYRhP6YwUxVynPK-36" target="GKZXtmYRhP6YwUxVynPK-41" edge="1">
          <mxGeometry relative="1" as="geometry" />
        </mxCell>
        <mxCell id="GKZXtmYRhP6YwUxVynPK-36" value="Desistir da AMAP ?" style="shape=mxgraph.flowchart.decision;strokeWidth=2;gradientColor=none;gradientDirection=north;fontStyle=0;html=1;" parent="1" vertex="1">
          <mxGeometry x="255" y="384" width="129" height="87" as="geometry" />
        </mxCell>
        <mxCell id="GKZXtmYRhP6YwUxVynPK-39" value="Não" style="text;fontStyle=0;html=1;strokeColor=none;gradientColor=none;fillColor=none;strokeWidth=2;" parent="1" vertex="1">
          <mxGeometry x="213" y="294" width="40" height="26" as="geometry" />
        </mxCell>
        <mxCell id="GKZXtmYRhP6YwUxVynPK-40" value="Inscrever na AMAP" style="rounded=1;whiteSpace=wrap;html=1;" parent="1" vertex="1">
          <mxGeometry x="450.5" y="384" width="120" height="60" as="geometry" />
        </mxCell>
        <mxCell id="GKZXtmYRhP6YwUxVynPK-41" value="Desistir da AMAP" style="rounded=1;whiteSpace=wrap;html=1;" parent="1" vertex="1">
          <mxGeometry x="259.5" y="525" width="120" height="60" as="geometry" />
        </mxCell>
        <mxCell id="GKZXtmYRhP6YwUxVynPK-43" value="Sim" style="text;fontStyle=0;html=1;strokeColor=none;gradientColor=none;fillColor=none;strokeWidth=2;" parent="1" vertex="1">
          <mxGeometry x="323" y="480" width="40" height="26" as="geometry" />
        </mxCell>
        <mxCell id="GKZXtmYRhP6YwUxVynPK-46" value="Confirmação de&lt;div&gt;inscrição enviada&lt;/div&gt;" style="text;fontStyle=0;html=1;strokeColor=none;gradientColor=none;fillColor=none;strokeWidth=2;" parent="1" vertex="1">
          <mxGeometry x="520" y="454" width="40" height="26" as="geometry" />
        </mxCell>
        <mxCell id="GKZXtmYRhP6YwUxVynPK-47" value="Confirmação&amp;nbsp;&lt;div&gt;de desistência&lt;/div&gt;&lt;div&gt;&lt;span style=&quot;background-color: initial;&quot;&gt;&amp;nbsp;enviada&lt;/span&gt;&lt;/div&gt;" style="text;fontStyle=0;html=1;strokeColor=none;gradientColor=none;fillColor=none;strokeWidth=2;" parent="1" vertex="1">
          <mxGeometry x="240" y="585" width="40" height="26" as="geometry" />
        </mxCell>
        <mxCell id="iW3N7YFp75owIr_V_91U-14" style="edgeStyle=orthogonalEdgeStyle;rounded=0;orthogonalLoop=1;jettySize=auto;html=1;entryX=1;entryY=0.5;entryDx=0;entryDy=0;" edge="1" parent="1" source="iW3N7YFp75owIr_V_91U-2" target="GKZXtmYRhP6YwUxVynPK-7">
          <mxGeometry relative="1" as="geometry">
            <Array as="points">
              <mxPoint x="630" y="550" />
              <mxPoint x="630" y="170" />
            </Array>
          </mxGeometry>
        </mxCell>
        <mxCell id="iW3N7YFp75owIr_V_91U-2" value="Inscrição aceite ?" style="shape=mxgraph.flowchart.decision;strokeWidth=2;gradientColor=none;gradientDirection=north;fontStyle=0;html=1;" vertex="1" parent="1">
          <mxGeometry x="446" y="506" width="129" height="87" as="geometry" />
        </mxCell>
        <mxCell id="iW3N7YFp75owIr_V_91U-3" style="edgeStyle=orthogonalEdgeStyle;rounded=0;orthogonalLoop=1;jettySize=auto;html=1;exitX=0.5;exitY=1;exitDx=0;exitDy=0;entryX=0.5;entryY=0;entryDx=0;entryDy=0;entryPerimeter=0;" edge="1" parent="1" source="GKZXtmYRhP6YwUxVynPK-40" target="iW3N7YFp75owIr_V_91U-2">
          <mxGeometry relative="1" as="geometry" />
        </mxCell>
        <mxCell id="iW3N7YFp75owIr_V_91U-4" style="edgeStyle=orthogonalEdgeStyle;rounded=0;orthogonalLoop=1;jettySize=auto;html=1;exitX=0.5;exitY=1;exitDx=0;exitDy=0;exitPerimeter=0;entryX=0.5;entryY=0;entryDx=0;entryDy=0;entryPerimeter=0;" edge="1" parent="1" source="iW3N7YFp75owIr_V_91U-2" target="GKZXtmYRhP6YwUxVynPK-6">
          <mxGeometry relative="1" as="geometry" />
        </mxCell>
        <mxCell id="iW3N7YFp75owIr_V_91U-10" style="edgeStyle=orthogonalEdgeStyle;rounded=0;orthogonalLoop=1;jettySize=auto;html=1;entryX=0;entryY=0.5;entryDx=0;entryDy=0;" edge="1" parent="1" source="iW3N7YFp75owIr_V_91U-5" target="GKZXtmYRhP6YwUxVynPK-7">
          <mxGeometry relative="1" as="geometry">
            <Array as="points">
              <mxPoint x="210" y="685" />
              <mxPoint x="210" y="170" />
            </Array>
          </mxGeometry>
        </mxCell>
        <mxCell id="iW3N7YFp75owIr_V_91U-5" value="Desistência aceite ?" style="shape=mxgraph.flowchart.decision;strokeWidth=2;gradientColor=none;gradientDirection=north;fontStyle=0;html=1;" vertex="1" parent="1">
          <mxGeometry x="255" y="641.5" width="129" height="87" as="geometry" />
        </mxCell>
        <mxCell id="iW3N7YFp75owIr_V_91U-6" style="edgeStyle=orthogonalEdgeStyle;rounded=0;orthogonalLoop=1;jettySize=auto;html=1;exitX=0.5;exitY=1;exitDx=0;exitDy=0;entryX=0.5;entryY=0;entryDx=0;entryDy=0;entryPerimeter=0;" edge="1" parent="1" source="GKZXtmYRhP6YwUxVynPK-41" target="iW3N7YFp75owIr_V_91U-5">
          <mxGeometry relative="1" as="geometry" />
        </mxCell>
        <mxCell id="iW3N7YFp75owIr_V_91U-7" style="edgeStyle=orthogonalEdgeStyle;rounded=0;orthogonalLoop=1;jettySize=auto;html=1;entryX=0;entryY=0.5;entryDx=0;entryDy=0;entryPerimeter=0;" edge="1" parent="1" source="iW3N7YFp75owIr_V_91U-5" target="GKZXtmYRhP6YwUxVynPK-6">
          <mxGeometry relative="1" as="geometry" />
        </mxCell>
        <mxCell id="iW3N7YFp75owIr_V_91U-8" value="Sim" style="text;fontStyle=0;html=1;strokeColor=none;gradientColor=none;fillColor=none;strokeWidth=2;" vertex="1" parent="1">
          <mxGeometry x="394" y="660" width="40" height="26" as="geometry" />
        </mxCell>
        <mxCell id="iW3N7YFp75owIr_V_91U-9" value="Sim" style="text;fontStyle=0;html=1;strokeColor=none;gradientColor=none;fillColor=none;strokeWidth=2;" vertex="1" parent="1">
          <mxGeometry x="514" y="611" width="40" height="26" as="geometry" />
        </mxCell>
        <mxCell id="iW3N7YFp75owIr_V_91U-11" value="Não" style="text;fontStyle=0;html=1;strokeColor=none;gradientColor=none;fillColor=none;strokeWidth=2;" vertex="1" parent="1">
          <mxGeometry x="213" y="454" width="40" height="26" as="geometry" />
        </mxCell>
        <mxCell id="iW3N7YFp75owIr_V_91U-15" value="Não" style="text;fontStyle=0;html=1;strokeColor=none;gradientColor=none;fillColor=none;strokeWidth=2;" vertex="1" parent="1">
          <mxGeometry x="600" y="358" width="40" height="26" as="geometry" />
        </mxCell>
      </root>
    </mxGraphModel>
  </diagram>
</mxfile>
